# xmcd
#
# Track frame offsets:
#	150
#	3225
#	21298
#	42672
#	71248
#	125772
#	165821
#	205345
#	256720
#
# Disc length: 3480 seconds
#
# Revision: 1
# Processed by: cddbd v1.5.1PL2 Copyright (c) Steve Scherf et al.
# Submitted via: audiograbber 1.83.01
#
DISCID=760d9609
DTITLE=Dickey Betts - Gathering Out The Vibes - Red Hook 01.07.2001
DYEAR=2001
DGENRE=
TTITLE0=Intro
TTITLE1=Rave
TTITLE2=Let's All Get Together
TTITLE3=Immortal
TTITLE4=Jessica
TTITLE5=I Gotta Know
TTITLE6=Franklin Towe Jam-Blue Sky
TTITLE7=Donna Maria
TTITLE8=Crowd Storm Instructions
EXTD=
EXTT0=
EXTT1=
EXTT2=
EXTT3=
EXTT4=
EXTT5=
EXTT6=
EXTT7=
EXTT8=
PLAYORDER=
